
<svg width="28px" height="28px" viewBox="0 0 28 28" version="1.1" xmlns="http://www.w3.org/2000/svg" xmlns:xlink="http://www.w3.org/1999/xlink">
    <g id="Page-1" stroke="none" stroke-width="1" fill="none" fill-rule="evenodd">
        <g id="iPhone-14-Pro-Max" transform="translate(-384.000000, -97.000000)" stroke="#979797">
            <path d="M398,97.5 C400.623353,97.5 402.998353,98.5633237 404.717514,100.282486 C406.436676,102.001647 407.5,104.376647 407.5,107 L407.5,113.848612 L410.379558,118.16795 C410.609323,118.512596 410.67764,118.917745 410.602354,119.294174 C410.527068,119.670603 410.30818,120.018311 409.963533,120.248075 C409.717132,120.412343 409.42762,120.5 409.131488,120.5 L401.464516,120.500082 C401.487894,120.663354 401.5,120.830263 401.5,121 C401.5,121.966498 401.108249,122.841498 400.474874,123.474874 C399.841498,124.108249 398.966498,124.5 398,124.5 C397.033502,124.5 396.158502,124.108249 395.525126,123.474874 C394.891751,122.841498 394.5,121.966498 394.5,121 C394.5,120.830263 394.512106,120.663354 394.535484,120.500082 L386.868517,120.5 C386.454304,120.5 386.079304,120.332107 385.807857,120.06066 C385.53641,119.789214 385.368517,119.414214 385.368517,119 C385.368517,118.703863 385.456174,118.414351 385.620442,118.16795 L388.5,113.848612 L388.5,107 C388.5,104.376647 389.563324,102.001647 391.282486,100.282486 C393.001647,98.5633237 395.376647,97.5 398,97.5 Z" id="Combined-Shape"></path>
        </g>
    </g>
</svg>