
<svg width="31px" height="27px" viewBox="0 0 31 27" version="1.1" xmlns="http://www.w3.org/2000/svg" xmlns:xlink="http://www.w3.org/1999/xlink">
    <g id="Symbols" stroke="none" stroke-width="1" fill="none" fill-rule="evenodd">
        <g id="Tab-Bar-Icon---Files" transform="translate(-12.000000, -4.000000)" stroke="#979797">
            <path d="M39.932563,12.5235047 L39.932563,9.65397376 C39.932563,9.10168901 39.4848478,8.65397376 38.932563,8.65397376 L24.0299657,8.65397376 C23.477681,8.65397376 23.0299657,8.20625851 23.0299657,7.65397376 L23.0299657,6 C23.0299657,5.44771525 22.5822505,5 22.0299657,5 L14,5 C13.4477153,5 13,5.44771525 13,6 L13,28.8571429 C13,29.4094276 13.4477153,29.8571429 14,29.8571429 L35.3206186,29.8571429 C36.6898992,29.8571429 37.8854235,28.9299924 38.2262174,27.6037991 L41.679072,14.1670797 C41.8165276,13.6321737 41.4943304,13.087117 40.9594245,12.9496613 C40.8781125,12.9287665 40.7944928,12.9181943 40.710539,12.9181943 L40.0106117,12.9181943 L40.0106117,12.9181943 L19.0447678,12.9181943 C18.601266,12.9181943 18.2107476,13.2103071 18.0854837,13.6357514 L13.4377245,29.4213181 L13.4377245,29.4213181" id="Path"></path>
        </g>
    </g>
</svg>